<svg width="24" height="24" viewBox="0 0 24 24" fill="none" xmlns="http://www.w3.org/2000/svg">
<path d="M19 8L15 12H18C18 13.5913 17.3679 15.1174 16.2426 16.2426C15.1174 17.3679 13.5913 18 12 18C11 18 10.03 17.75 9.2 17.3L7.74 18.76C9.01309 19.5702 10.4909 20.0004 12 20C14.1217 20 16.1566 19.1571 17.6569 17.6569C19.1571 16.1566 20 14.1217 20 12H23L19 8ZM6 12C6 10.4087 6.63214 8.88258 7.75736 7.75736C8.88258 6.63214 10.4087 6 12 6C13 6 13.97 6.25 14.8 6.7L16.26 5.24C14.9869 4.42975 13.5091 3.99958 12 4C9.87827 4 7.84344 4.84285 6.34315 6.34315C4.84285 7.84344 4 9.87827 4 12H1L5 16L9 12" fill="#7F8DEF"/>
</svg>
